<?xml version="1.0" encoding="utf-8"?>
<!-- Generator: Adobe Illustrator 22.0.1, SVG Export Plug-In . SVG Version: 6.00 Build 0)  -->
<svg version="1.1" xmlns="http://www.w3.org/2000/svg" xmlns:xlink="http://www.w3.org/1999/xlink" x="0px" y="0px"
	 viewBox="0 0 113.386 25.512" style="enable-background:new 0 0 113.386 25.512;" xml:space="preserve">
<style type="text/css">
	.st0{display:none;}
	.st1{display:inline;fill:#160101;}
	.st2{fill:#00BEEA;}
	.st3{fill:#FCFCFC;}
	.st4{fill:#FFFFFF;}
</style>
<g id="Layer_2" class="st0">
	<rect x="-14.866" y="-12.11" class="st1" width="149.333" height="52"/>
</g>
<g id="Layer_1">
	<g>
		<path class="st2" d="M14.568,15.871c0-0.639-0.111-1.205-0.333-1.7c-0.222-0.496-0.578-0.944-1.069-1.347
			s-1.131-0.771-1.923-1.104c-0.792-0.333-1.761-0.657-2.909-0.972c-1.027-0.278-1.953-0.574-2.777-0.889
			C4.733,9.545,4.032,9.177,3.454,8.756c-0.579-0.421-1.021-0.921-1.326-1.5C1.823,6.678,1.67,5.982,1.67,5.167
			c0-0.768,0.171-1.458,0.514-2.068c0.342-0.611,0.813-1.129,1.409-1.555C4.19,1.117,4.898,0.791,5.717,0.564
			c0.819-0.227,1.705-0.34,2.659-0.34c0.981,0,1.883,0.144,2.708,0.43c0.824,0.287,1.534,0.692,2.131,1.215
			c0.597,0.523,1.063,1.152,1.396,1.888c0.333,0.736,0.5,1.548,0.5,2.437h-0.75c0-0.75-0.144-1.441-0.43-2.076
			c-0.287-0.634-0.692-1.185-1.215-1.652s-1.152-0.833-1.888-1.097c-0.736-0.264-1.553-0.396-2.451-0.396
			c-0.954,0-1.8,0.113-2.541,0.34C5.095,1.541,4.472,1.846,3.968,2.23C3.463,2.614,3.079,3.059,2.815,3.563
			C2.552,4.068,2.42,4.593,2.42,5.139c0,0.537,0.092,1.035,0.277,1.493S3.207,7.518,3.67,7.916c0.462,0.398,1.087,0.771,1.874,1.118
			s1.787,0.678,2.999,0.993c1,0.259,1.914,0.549,2.742,0.868c0.828,0.319,1.543,0.703,2.145,1.152
			c0.602,0.449,1.069,0.981,1.402,1.597c0.333,0.616,0.5,1.349,0.5,2.201c0,0.824-0.181,1.558-0.542,2.2
			c-0.361,0.644-0.852,1.183-1.472,1.618c-0.62,0.435-1.347,0.766-2.18,0.992c-0.833,0.227-1.722,0.341-2.666,0.341
			c-0.574,0-1.157-0.044-1.75-0.132c-0.592-0.089-1.166-0.228-1.722-0.417c-0.555-0.189-1.074-0.438-1.555-0.743
			c-0.481-0.305-0.902-0.68-1.264-1.124c-0.361-0.444-0.646-0.96-0.854-1.548c-0.208-0.588-0.312-1.262-0.312-2.021h0.75
			c0,0.676,0.097,1.272,0.292,1.791s0.46,0.972,0.798,1.36s0.729,0.715,1.173,0.979c0.444,0.264,0.914,0.479,1.409,0.646
			c0.495,0.166,1.002,0.284,1.521,0.354c0.518,0.069,1.022,0.104,1.513,0.104c0.889,0,1.706-0.106,2.451-0.319
			c0.745-0.213,1.388-0.512,1.93-0.896s0.963-0.845,1.264-1.382C14.418,17.112,14.568,16.52,14.568,15.871z"/>
	</g>
	<g>
		<path class="st3" d="M31.555,15.651c0,0.816-0.091,1.559-0.271,2.227c-0.181,0.668-0.443,1.241-0.785,1.718
			c-0.342,0.478-0.762,0.846-1.259,1.106c-0.497,0.26-1.061,0.39-1.693,0.39c-0.435,0-0.838-0.046-1.209-0.139
			c-0.372-0.092-0.709-0.22-1.012-0.385c-0.303-0.164-0.574-0.36-0.814-0.587c-0.24-0.228-0.443-0.476-0.607-0.746v5.767H23.37
			V10.212h0.533v1.905c0.171-0.316,0.375-0.602,0.612-0.859s0.507-0.477,0.81-0.662c0.303-0.184,0.637-0.327,1.002-0.429
			c0.366-0.102,0.765-0.153,1.2-0.153c0.632,0,1.198,0.125,1.698,0.375c0.5,0.25,0.923,0.609,1.269,1.076
			c0.346,0.467,0.609,1.037,0.79,1.708c0.181,0.671,0.271,1.428,0.271,2.271V15.651z M31.012,15.444
			c0-0.711-0.071-1.366-0.212-1.965c-0.142-0.599-0.355-1.116-0.642-1.55c-0.287-0.435-0.648-0.773-1.086-1.017
			c-0.438-0.243-0.95-0.365-1.536-0.365c-0.566,0-1.055,0.083-1.466,0.247c-0.412,0.165-0.76,0.377-1.047,0.637
			c-0.286,0.26-0.52,0.55-0.701,0.869c-0.181,0.319-0.321,0.634-0.42,0.943v4.996c0.125,0.336,0.294,0.646,0.509,0.928
			c0.214,0.283,0.472,0.528,0.775,0.736c0.303,0.207,0.651,0.368,1.046,0.483s0.836,0.173,1.323,0.173
			c0.579,0,1.086-0.122,1.521-0.365c0.434-0.243,0.794-0.584,1.081-1.021c0.286-0.438,0.5-0.956,0.642-1.556
			c0.142-0.599,0.212-1.254,0.212-1.965V15.444z"/>
		<path class="st3" d="M33.648,15.346c0-0.783,0.113-1.501,0.34-2.153c0.227-0.651,0.546-1.212,0.958-1.683
			c0.411-0.471,0.903-0.837,1.476-1.101c0.572-0.263,1.205-0.395,1.896-0.395c0.698,0,1.334,0.132,1.911,0.395
			c0.576,0.264,1.067,0.63,1.476,1.101s0.726,1.032,0.953,1.683c0.227,0.652,0.34,1.37,0.34,2.153v0.415
			c0,0.783-0.112,1.5-0.335,2.152c-0.224,0.651-0.542,1.212-0.953,1.683c-0.412,0.471-0.904,0.838-1.476,1.102
			c-0.573,0.263-1.205,0.395-1.896,0.395c-0.698,0-1.334-0.132-1.91-0.395c-0.576-0.264-1.07-0.631-1.481-1.102
			c-0.412-0.471-0.731-1.031-0.958-1.683c-0.227-0.652-0.34-1.369-0.34-2.152V15.346z M34.181,15.761
			c0,0.638,0.094,1.247,0.281,1.826s0.459,1.089,0.814,1.53s0.79,0.791,1.303,1.052c0.514,0.26,1.099,0.39,1.757,0.39
			c0.652,0,1.232-0.13,1.743-0.39c0.51-0.261,0.941-0.61,1.293-1.052s0.622-0.951,0.81-1.53s0.281-1.188,0.281-1.826v-0.415
			c0-0.625-0.094-1.226-0.281-1.802c-0.188-0.576-0.459-1.086-0.814-1.53s-0.79-0.8-1.303-1.066c-0.514-0.267-1.096-0.4-1.748-0.4
			c-0.652,0-1.234,0.133-1.748,0.4s-0.946,0.622-1.298,1.066s-0.622,0.955-0.81,1.53c-0.188,0.577-0.281,1.177-0.281,1.802V15.761z"
			/>
		<path class="st3" d="M52.17,18.278c0-0.244-0.046-0.49-0.138-0.741c-0.092-0.25-0.26-0.491-0.504-0.726
			c-0.243-0.233-0.576-0.45-0.997-0.651c-0.421-0.201-0.961-0.373-1.619-0.519c-0.599-0.125-1.124-0.267-1.575-0.425
			c-0.451-0.157-0.828-0.35-1.13-0.577s-0.53-0.497-0.681-0.81c-0.152-0.313-0.228-0.686-0.228-1.12
			c0-0.375,0.083-0.726,0.247-1.052s0.4-0.61,0.706-0.854s0.679-0.436,1.121-0.578c0.441-0.142,0.941-0.212,1.5-0.212
			c0.599,0,1.134,0.074,1.604,0.222c0.471,0.148,0.87,0.355,1.2,0.622c0.329,0.267,0.581,0.587,0.755,0.963
			c0.174,0.375,0.261,0.79,0.261,1.244H52.15c0-0.329-0.072-0.645-0.217-0.948c-0.145-0.303-0.355-0.571-0.632-0.805
			c-0.276-0.233-0.619-0.419-1.027-0.558s-0.875-0.208-1.402-0.208c-0.54,0-1.002,0.064-1.387,0.193
			c-0.385,0.128-0.699,0.296-0.943,0.503c-0.244,0.207-0.423,0.438-0.538,0.691s-0.173,0.505-0.173,0.755
			c0,0.276,0.038,0.532,0.114,0.765c0.076,0.234,0.23,0.452,0.464,0.652c0.234,0.201,0.563,0.39,0.987,0.567
			c0.425,0.178,0.982,0.346,1.674,0.504c0.638,0.145,1.186,0.31,1.644,0.494c0.458,0.184,0.834,0.399,1.13,0.646
			c0.296,0.246,0.514,0.531,0.652,0.854c0.138,0.323,0.208,0.694,0.208,1.116c0,0.414-0.087,0.793-0.262,1.135
			c-0.175,0.343-0.425,0.637-0.75,0.884s-0.721,0.439-1.185,0.578c-0.464,0.138-0.982,0.207-1.555,0.207
			c-0.645,0-1.216-0.077-1.713-0.232c-0.497-0.154-0.915-0.365-1.254-0.632c-0.339-0.267-0.596-0.575-0.77-0.928
			c-0.175-0.353-0.262-0.726-0.262-1.121h0.533c0.033,0.461,0.159,0.845,0.38,1.15c0.221,0.307,0.494,0.55,0.819,0.73
			c0.326,0.182,0.688,0.31,1.086,0.386c0.398,0.075,0.791,0.113,1.18,0.113c0.526,0,0.991-0.065,1.392-0.197
			s0.737-0.307,1.007-0.523c0.27-0.217,0.474-0.462,0.612-0.735S52.17,18.555,52.17,18.278z"/>
	</g>
	<g>
		<path class="st2" d="M59.266,19.3l0.357,1.086l0.358-1.086l6.035-16.217h0.728l-6.714,17.97h-0.814l-6.713-17.97h0.728
			L59.266,19.3z"/>
	</g>
	<g>
		<path class="st3" d="M72.607,21.031h-0.533V8.229h0.533V21.031z"/>
		<path class="st3" d="M76.773,21.031H76.24V8.229h0.533V21.031z"/>
		<path class="st3" d="M87.18,21.031c-0.073-0.25-0.123-0.551-0.153-0.903c-0.03-0.352-0.044-0.702-0.044-1.051
			c-0.178,0.29-0.398,0.565-0.661,0.824c-0.263,0.26-0.57,0.489-0.918,0.686c-0.349,0.197-0.74,0.354-1.175,0.469
			c-0.434,0.115-0.918,0.173-1.451,0.173c-0.5,0-0.953-0.071-1.358-0.212c-0.405-0.141-0.75-0.341-1.037-0.597
			c-0.286-0.257-0.507-0.563-0.661-0.918c-0.155-0.355-0.232-0.747-0.232-1.175c0-0.474,0.112-0.911,0.336-1.313
			c0.224-0.401,0.548-0.745,0.973-1.032c0.425-0.286,0.943-0.51,1.555-0.671c0.612-0.161,1.303-0.242,2.073-0.242h2.557v-1.56
			c0-0.895-0.281-1.59-0.844-2.083c-0.563-0.494-1.367-0.74-2.414-0.74c-0.487,0-0.938,0.066-1.353,0.197
			c-0.415,0.132-0.775,0.314-1.081,0.548c-0.306,0.234-0.546,0.51-0.721,0.829c-0.175,0.319-0.262,0.663-0.262,1.032l-0.533-0.02
			c0-0.415,0.097-0.811,0.291-1.19c0.194-0.378,0.467-0.711,0.819-0.997c0.352-0.286,0.77-0.513,1.254-0.681
			c0.484-0.168,1.012-0.252,1.585-0.252c0.553,0,1.061,0.071,1.525,0.212c0.464,0.142,0.864,0.352,1.2,0.632
			c0.336,0.28,0.597,0.632,0.785,1.056c0.188,0.425,0.281,0.917,0.281,1.476v5.351c0,0.191,0.006,0.387,0.02,0.587
			c0.013,0.201,0.031,0.392,0.054,0.573c0.023,0.181,0.051,0.35,0.084,0.508c0.033,0.158,0.072,0.29,0.118,0.395v0.089H87.18z
			 M82.776,20.705c0.513,0,0.989-0.059,1.427-0.178c0.438-0.118,0.832-0.289,1.185-0.513c0.352-0.223,0.661-0.492,0.928-0.805
			c0.267-0.312,0.489-0.666,0.666-1.061V15.61h-2.528c-0.691,0-1.31,0.068-1.856,0.202c-0.546,0.135-1.01,0.325-1.392,0.568
			c-0.382,0.244-0.675,0.535-0.879,0.874c-0.204,0.339-0.306,0.71-0.306,1.111c0,0.323,0.067,0.626,0.202,0.908
			c0.135,0.283,0.324,0.532,0.568,0.745c0.243,0.214,0.533,0.382,0.869,0.504C81.996,20.644,82.368,20.705,82.776,20.705z"/>
		<path class="st3" d="M92.092,11.78c0.247-0.329,0.531-0.614,0.854-0.854c0.322-0.24,0.679-0.429,1.071-0.568
			c0.392-0.138,0.811-0.207,1.259-0.207c0.54,0,1.02,0.074,1.441,0.222c0.421,0.148,0.777,0.382,1.066,0.701
			c0.289,0.319,0.51,0.729,0.661,1.229c0.151,0.5,0.227,1.106,0.227,1.817v6.911h-0.533V14.12c0-0.678-0.071-1.239-0.212-1.683
			c-0.142-0.444-0.341-0.796-0.597-1.056c-0.257-0.26-0.563-0.442-0.918-0.548c-0.355-0.105-0.744-0.158-1.165-0.158
			c-0.388,0-0.744,0.054-1.066,0.163c-0.323,0.109-0.614,0.255-0.874,0.439c-0.26,0.185-0.492,0.395-0.696,0.632
			c-0.204,0.237-0.38,0.487-0.528,0.75c-0.148,0.263-0.272,0.527-0.37,0.79c-0.099,0.263-0.175,0.51-0.227,0.74v6.842h-0.533V10.348
			h0.533v2.488C91.642,12.461,91.845,12.109,92.092,11.78z"/>
		<path class="st3" d="M105.287,20.201l0.069-0.197l3.693-9.656h0.592l-4.749,12.46c-0.086,0.224-0.189,0.482-0.311,0.775
			c-0.122,0.293-0.286,0.57-0.494,0.829s-0.472,0.481-0.795,0.661c-0.323,0.181-0.728,0.272-1.214,0.272
			c-0.053,0-0.117-0.002-0.193-0.005c-0.076-0.003-0.151-0.01-0.227-0.02c-0.076-0.01-0.147-0.022-0.212-0.035
			c-0.066-0.013-0.118-0.03-0.158-0.049l-0.01-0.504c0.046,0.013,0.105,0.025,0.178,0.035c0.072,0.01,0.143,0.02,0.212,0.03
			c0.069,0.01,0.133,0.017,0.193,0.02c0.059,0.003,0.105,0.005,0.138,0.005c0.329,0,0.617-0.052,0.864-0.158
			c0.247-0.106,0.461-0.252,0.642-0.439c0.181-0.188,0.341-0.41,0.479-0.666c0.138-0.257,0.263-0.54,0.375-0.849l0.642-1.738
			l-4.255-10.623h0.583L105.287,20.201z"/>
	</g>
	<polygon class="st4" points="20.502,6.392 22.532,6.392 20.991,12.299 22.635,12.299 18.739,23.267 20.117,15.181 18.635,15.252 	
		"/>
	<g>
		<path class="st4" d="M67.611,7.19c0-0.15,0.052-0.278,0.156-0.386s0.231-0.161,0.381-0.161s0.278,0.054,0.386,0.161
			s0.161,0.236,0.161,0.386s-0.054,0.277-0.161,0.381s-0.236,0.156-0.386,0.156s-0.276-0.052-0.381-0.156S67.611,7.339,67.611,7.19z
			 M68.412,21.057h-0.527V10.49h0.527V21.057z"/>
	</g>
	<g>
	</g>
	<g>
	</g>
	<g>
	</g>
	<g>
	</g>
	<g>
	</g>
	<g>
	</g>
	<g>
	</g>
	<g>
	</g>
	<g>
	</g>
	<g>
	</g>
	<g>
	</g>
	<g>
	</g>
	<g>
	</g>
	<g>
	</g>
	<g>
	</g>
</g>
</svg>
