<?xml version="1.0" encoding="utf-8"?>
<!-- Generator: Adobe Illustrator 22.0.1, SVG Export Plug-In . SVG Version: 6.00 Build 0)  -->
<svg version="1.1" id="Layer_1" xmlns="http://www.w3.org/2000/svg" xmlns:xlink="http://www.w3.org/1999/xlink" x="0px" y="0px"
	 viewBox="0 0 62.362 42.52" style="enable-background:new 0 0 62.362 42.52;" xml:space="preserve">
<style type="text/css">
	.st0{fill:#00BEEA;}
	.st1{fill:#FCFCFC;}
	.st2{fill:#FFFFFF;}
</style>
<g>
	<path class="st0" d="M13.864,19.209c0-0.639-0.111-1.206-0.333-1.701s-0.578-0.944-1.069-1.347
		c-0.491-0.403-1.131-0.771-1.923-1.104c-0.792-0.333-1.761-0.657-2.909-0.972c-1.027-0.278-1.953-0.574-2.777-0.889
		c-0.824-0.314-1.525-0.683-2.104-1.104c-0.579-0.421-1.021-0.921-1.326-1.5c-0.305-0.579-0.458-1.275-0.458-2.09
		c0-0.768,0.171-1.458,0.514-2.068c0.342-0.611,0.813-1.129,1.409-1.555c0.597-0.426,1.305-0.752,2.125-0.979
		c0.819-0.227,1.705-0.34,2.659-0.34c0.981,0,1.883,0.144,2.708,0.43c0.824,0.287,1.534,0.692,2.131,1.215
		c0.597,0.523,1.063,1.152,1.396,1.888c0.333,0.736,0.5,1.548,0.5,2.437h-0.75c0-0.75-0.144-1.441-0.43-2.076
		c-0.287-0.634-0.692-1.185-1.215-1.652s-1.152-0.833-1.888-1.097C9.386,4.443,8.569,4.311,7.671,4.311
		c-0.954,0-1.8,0.113-2.541,0.34C4.39,4.878,3.768,5.184,3.263,5.568C2.759,5.952,2.374,6.396,2.111,6.901
		C1.847,7.405,1.715,7.93,1.715,8.476c0,0.537,0.092,1.035,0.277,1.493s0.509,0.886,0.972,1.284
		c0.462,0.398,1.087,0.771,1.874,1.118s1.787,0.678,2.999,0.993c1,0.259,1.914,0.549,2.742,0.868
		c0.828,0.319,1.543,0.703,2.145,1.152c0.602,0.449,1.069,0.981,1.402,1.597c0.333,0.615,0.5,1.349,0.5,2.2
		c0,0.824-0.181,1.558-0.542,2.201c-0.361,0.644-0.852,1.183-1.472,1.618c-0.62,0.436-1.347,0.767-2.18,0.993
		c-0.833,0.227-1.722,0.34-2.666,0.34c-0.574,0-1.157-0.044-1.75-0.132s-1.166-0.227-1.722-0.416
		c-0.555-0.19-1.074-0.438-1.555-0.743c-0.481-0.306-0.902-0.681-1.264-1.125c-0.361-0.444-0.646-0.96-0.854-1.548
		c-0.208-0.588-0.312-1.261-0.312-2.021h0.75c0,0.676,0.097,1.273,0.292,1.791c0.194,0.519,0.46,0.972,0.798,1.361
		s0.729,0.715,1.173,0.979c0.444,0.264,0.914,0.479,1.409,0.646c0.495,0.167,1.002,0.285,1.521,0.354
		c0.518,0.069,1.022,0.104,1.513,0.104c0.889,0,1.706-0.105,2.451-0.319c0.745-0.213,1.388-0.511,1.93-0.896
		c0.542-0.384,0.963-0.844,1.264-1.381C13.713,20.449,13.864,19.857,13.864,19.209z"/>
</g>
<g>
	<path class="st1" d="M30.85,18.989c0,0.816-0.091,1.559-0.271,2.227c-0.181,0.668-0.443,1.241-0.785,1.718
		s-0.762,0.846-1.259,1.105s-1.061,0.39-1.693,0.39c-0.435,0-0.838-0.046-1.209-0.138c-0.372-0.092-0.709-0.221-1.012-0.385
		c-0.303-0.165-0.574-0.36-0.814-0.588c-0.24-0.227-0.443-0.476-0.607-0.745v5.766h-0.533v-14.79h0.533v1.905
		c0.171-0.316,0.375-0.602,0.612-0.859s0.507-0.477,0.81-0.662c0.303-0.184,0.637-0.327,1.002-0.429
		c0.366-0.102,0.765-0.153,1.2-0.153c0.632,0,1.198,0.125,1.698,0.375c0.5,0.25,0.923,0.609,1.269,1.076
		c0.346,0.467,0.609,1.037,0.79,1.708c0.181,0.671,0.271,1.428,0.271,2.271V18.989z M30.307,18.781c0-0.71-0.071-1.366-0.212-1.964
		c-0.142-0.599-0.355-1.116-0.642-1.55c-0.287-0.435-0.648-0.773-1.086-1.017c-0.438-0.243-0.95-0.365-1.536-0.365
		c-0.566,0-1.055,0.083-1.466,0.247c-0.412,0.165-0.76,0.377-1.047,0.637c-0.286,0.26-0.52,0.55-0.701,0.869
		c-0.181,0.319-0.321,0.634-0.42,0.943v4.996c0.125,0.335,0.294,0.645,0.509,0.928c0.214,0.283,0.472,0.528,0.775,0.735
		s0.651,0.369,1.046,0.484s0.836,0.173,1.323,0.173c0.579,0,1.086-0.122,1.521-0.366c0.434-0.243,0.794-0.584,1.081-1.021
		c0.286-0.438,0.5-0.956,0.642-1.555s0.212-1.254,0.212-1.965V18.781z"/>
	<path class="st1" d="M32.943,18.683c0-0.783,0.113-1.5,0.34-2.152c0.228-0.651,0.547-1.212,0.958-1.683s0.903-0.837,1.477-1.101
		c0.572-0.263,1.204-0.395,1.896-0.395c0.697,0,1.334,0.132,1.91,0.395c0.576,0.264,1.067,0.63,1.476,1.101s0.727,1.032,0.953,1.683
		c0.228,0.652,0.341,1.369,0.341,2.152v0.415c0,0.783-0.112,1.5-0.336,2.152c-0.224,0.651-0.541,1.213-0.952,1.684
		c-0.412,0.471-0.904,0.838-1.477,1.101c-0.572,0.264-1.204,0.395-1.896,0.395c-0.698,0-1.335-0.131-1.91-0.395
		c-0.576-0.263-1.07-0.63-1.481-1.101s-0.73-1.032-0.958-1.684c-0.227-0.652-0.34-1.369-0.34-2.152V18.683z M33.477,19.098
		c0,0.638,0.094,1.247,0.281,1.826c0.188,0.58,0.459,1.089,0.814,1.53c0.355,0.441,0.79,0.792,1.303,1.052
		c0.514,0.26,1.1,0.391,1.758,0.391c0.651,0,1.232-0.131,1.742-0.391c0.511-0.26,0.941-0.61,1.294-1.052
		c0.352-0.441,0.622-0.951,0.81-1.53c0.188-0.579,0.281-1.188,0.281-1.826v-0.415c0-0.625-0.094-1.226-0.281-1.802
		c-0.188-0.576-0.459-1.086-0.814-1.53s-0.79-0.8-1.304-1.066s-1.096-0.4-1.747-0.4c-0.652,0-1.234,0.133-1.748,0.4
		c-0.513,0.267-0.946,0.622-1.298,1.066c-0.353,0.444-0.622,0.955-0.81,1.53c-0.188,0.576-0.281,1.177-0.281,1.802V19.098z"/>
	<path class="st1" d="M51.465,21.615c0-0.244-0.046-0.49-0.138-0.741c-0.093-0.25-0.261-0.492-0.504-0.726
		c-0.243-0.233-0.576-0.451-0.997-0.652c-0.422-0.201-0.961-0.373-1.619-0.518c-0.6-0.125-1.124-0.267-1.575-0.425
		c-0.451-0.158-0.827-0.35-1.13-0.577c-0.303-0.228-0.53-0.497-0.682-0.81c-0.151-0.313-0.228-0.686-0.228-1.12
		c0-0.375,0.083-0.726,0.247-1.052c0.165-0.326,0.4-0.61,0.706-0.854c0.307-0.244,0.68-0.436,1.121-0.578
		c0.44-0.142,0.94-0.212,1.5-0.212c0.6,0,1.134,0.074,1.604,0.222c0.471,0.148,0.87,0.355,1.2,0.622
		c0.329,0.267,0.58,0.587,0.755,0.963c0.175,0.375,0.262,0.79,0.262,1.244h-0.543c0-0.329-0.072-0.645-0.218-0.948
		c-0.145-0.303-0.355-0.571-0.632-0.805c-0.276-0.233-0.618-0.419-1.026-0.558s-0.876-0.208-1.402-0.208
		c-0.539,0-1.002,0.064-1.387,0.193c-0.385,0.128-0.699,0.296-0.943,0.503c-0.243,0.207-0.423,0.438-0.538,0.691
		s-0.173,0.505-0.173,0.755c0,0.276,0.038,0.532,0.114,0.765c0.075,0.234,0.23,0.451,0.464,0.652s0.563,0.39,0.987,0.567
		s0.982,0.346,1.674,0.504c0.638,0.145,1.186,0.309,1.644,0.494c0.457,0.184,0.834,0.399,1.13,0.646
		c0.297,0.247,0.514,0.532,0.652,0.854c0.138,0.323,0.207,0.694,0.207,1.116c0,0.415-0.087,0.793-0.262,1.136
		c-0.175,0.342-0.425,0.637-0.75,0.884c-0.326,0.246-0.721,0.439-1.185,0.577c-0.465,0.139-0.982,0.207-1.556,0.207
		c-0.645,0-1.216-0.077-1.713-0.231s-0.915-0.365-1.254-0.632s-0.596-0.576-0.77-0.929c-0.175-0.352-0.262-0.726-0.262-1.121h0.533
		c0.032,0.461,0.159,0.844,0.38,1.151c0.221,0.306,0.493,0.55,0.819,0.73s0.688,0.31,1.086,0.385
		c0.398,0.076,0.791,0.114,1.18,0.114c0.526,0,0.991-0.066,1.393-0.198c0.401-0.131,0.737-0.306,1.007-0.523
		c0.27-0.217,0.474-0.462,0.612-0.735C51.395,22.167,51.465,21.892,51.465,21.615z"/>
</g>
<g>
	<path class="st0" d="M7.228,35.888l0.358,1.086l0.358-1.086l6.035-16.217h0.728L7.993,37.64H7.178L0.465,19.671h0.728L7.228,35.888
		z"/>
</g>
<g>
	<path class="st1" d="M23.205,37.618h-0.533V24.816h0.533V37.618z"/>
	<path class="st1" d="M27.371,37.618h-0.533V24.816h0.533V37.618z"/>
	<path class="st1" d="M37.778,37.618c-0.073-0.25-0.123-0.551-0.153-0.903c-0.03-0.352-0.044-0.702-0.044-1.051
		c-0.178,0.29-0.398,0.565-0.661,0.824c-0.263,0.26-0.57,0.489-0.918,0.686c-0.349,0.197-0.74,0.354-1.175,0.469
		c-0.434,0.115-0.918,0.173-1.451,0.173c-0.5,0-0.953-0.071-1.358-0.212c-0.405-0.141-0.75-0.341-1.037-0.597
		c-0.286-0.257-0.507-0.563-0.661-0.918c-0.155-0.355-0.232-0.747-0.232-1.175c0-0.474,0.112-0.911,0.336-1.313
		c0.224-0.401,0.548-0.745,0.973-1.032c0.425-0.286,0.943-0.51,1.555-0.671c0.612-0.161,1.303-0.242,2.073-0.242h2.557v-1.56
		c0-0.895-0.281-1.59-0.844-2.083c-0.563-0.494-1.367-0.74-2.414-0.74c-0.487,0-0.938,0.066-1.353,0.197
		c-0.415,0.132-0.775,0.314-1.081,0.548c-0.306,0.234-0.546,0.51-0.721,0.829c-0.175,0.319-0.262,0.663-0.262,1.032l-0.533-0.02
		c0-0.415,0.097-0.811,0.291-1.19c0.194-0.378,0.467-0.711,0.819-0.997c0.352-0.286,0.77-0.513,1.254-0.681
		c0.484-0.168,1.012-0.252,1.585-0.252c0.553,0,1.061,0.071,1.525,0.212c0.464,0.142,0.864,0.352,1.2,0.632
		c0.336,0.28,0.597,0.632,0.785,1.056c0.188,0.425,0.281,0.917,0.281,1.476v5.351c0,0.191,0.006,0.387,0.02,0.587
		c0.013,0.201,0.031,0.392,0.054,0.573c0.023,0.181,0.051,0.35,0.084,0.508c0.033,0.158,0.072,0.29,0.118,0.395v0.089H37.778z
		 M33.374,37.292c0.513,0,0.989-0.059,1.427-0.178c0.438-0.118,0.832-0.289,1.185-0.513c0.352-0.223,0.661-0.492,0.928-0.805
		c0.267-0.312,0.489-0.666,0.666-1.061v-2.537h-2.528c-0.691,0-1.31,0.068-1.856,0.202c-0.546,0.135-1.01,0.325-1.392,0.568
		c-0.382,0.244-0.675,0.535-0.879,0.874c-0.204,0.339-0.306,0.71-0.306,1.111c0,0.323,0.067,0.626,0.202,0.908
		c0.135,0.283,0.324,0.532,0.568,0.745c0.243,0.214,0.533,0.382,0.869,0.504C32.594,37.232,32.966,37.292,33.374,37.292z"/>
	<path class="st1" d="M42.69,28.367c0.247-0.329,0.531-0.614,0.854-0.854c0.322-0.24,0.679-0.429,1.071-0.568
		c0.392-0.138,0.811-0.207,1.259-0.207c0.54,0,1.02,0.074,1.441,0.222c0.421,0.148,0.777,0.382,1.066,0.701
		c0.289,0.319,0.51,0.729,0.661,1.229c0.151,0.5,0.227,1.106,0.227,1.817v6.911h-0.533v-6.911c0-0.678-0.071-1.239-0.212-1.683
		c-0.142-0.444-0.341-0.796-0.597-1.056c-0.257-0.26-0.563-0.442-0.918-0.548c-0.355-0.105-0.744-0.158-1.165-0.158
		c-0.388,0-0.744,0.054-1.066,0.163c-0.323,0.109-0.614,0.255-0.874,0.439c-0.26,0.185-0.492,0.395-0.696,0.632
		c-0.204,0.237-0.38,0.487-0.528,0.75c-0.148,0.263-0.272,0.527-0.37,0.79c-0.099,0.263-0.175,0.51-0.227,0.74v6.842h-0.533V26.936
		h0.533v2.488C42.24,29.048,42.443,28.696,42.69,28.367z"/>
	<path class="st1" d="M55.885,36.789l0.069-0.197l3.693-9.656h0.592l-4.749,12.46c-0.086,0.224-0.189,0.482-0.311,0.775
		c-0.122,0.293-0.286,0.57-0.494,0.829c-0.207,0.26-0.472,0.481-0.795,0.661c-0.323,0.181-0.728,0.272-1.214,0.272
		c-0.053,0-0.117-0.002-0.193-0.005c-0.076-0.003-0.151-0.01-0.227-0.02c-0.076-0.01-0.147-0.022-0.212-0.035
		c-0.066-0.013-0.118-0.03-0.158-0.049l-0.01-0.504c0.046,0.013,0.105,0.025,0.178,0.035c0.072,0.01,0.143,0.02,0.212,0.03
		s0.133,0.017,0.193,0.02c0.059,0.003,0.105,0.005,0.138,0.005c0.329,0,0.617-0.052,0.864-0.158
		c0.247-0.106,0.461-0.252,0.642-0.439c0.181-0.188,0.341-0.41,0.479-0.666c0.138-0.257,0.263-0.54,0.375-0.849l0.642-1.738
		l-4.255-10.623h0.583L55.885,36.789z"/>
</g>
<path class="st1" d="M17.808,37.686h-0.533V27.004h0.533V37.686z"/>
<polygon class="st2" points="18.991,9.73 21.021,9.73 19.48,15.636 21.125,15.636 17.228,26.605 18.606,18.519 17.125,18.589 "/>
<g>
</g>
<g>
</g>
<g>
</g>
<g>
</g>
<g>
</g>
<g>
</g>
<g>
</g>
<g>
</g>
<g>
</g>
<g>
</g>
<g>
</g>
<g>
</g>
<g>
</g>
<g>
</g>
<g>
</g>
</svg>
